<?xml version="1.0" encoding="UTF-8"?>
<svg width="401px" height="304px" viewBox="0 0 401 304" version="1.1" xmlns="http://www.w3.org/2000/svg" xmlns:xlink="http://www.w3.org/1999/xlink">
    <title>banner_circle_03</title>
    <defs>
        <rect id="path-1" x="0" y="0" width="401" height="304"></rect>
    </defs>
    <g id="Page-1" stroke="none" stroke-width="1" fill="none" fill-rule="evenodd">
        <g id="seer_blog_post_desktop_hd" transform="translate(-904.000000, -140.000000)">
            <g id="banner_circle_03" transform="translate(904.000000, 140.000000)">
                <mask id="mask-2" fill="white">
                    <use xlink:href="#path-1"></use>
                </mask>
                <g id="Mask"></g>
                <path d="M200.5,0 C311.233092,0 401,89.7669077 401,200.5 C401,311.233092 311.233092,401 200.5,401 C89.7669077,401 0,311.233092 0,200.5 C0,89.7669077 89.7669077,0 200.5,0 Z M202.545918,58.1040816 C122.772895,58.1040816 58.1040816,122.772895 58.1040816,202.545918 C58.1040816,282.318942 122.772895,346.987755 202.545918,346.987755 C282.318942,346.987755 346.987755,282.318942 346.987755,202.545918 C346.987755,122.772895 282.318942,58.1040816 202.545918,58.1040816 Z" id="Combined-Shape" fill="#7D4173" mask="url(#mask-2)"></path>
            </g>
        </g>
    </g>
</svg>