<?xml version="1.0" encoding="UTF-8"?>
<svg width="22px" height="22px" viewBox="0 0 22 22" version="1.1" xmlns="http://www.w3.org/2000/svg" xmlns:xlink="http://www.w3.org/1999/xlink">
    <title>instagram_icon</title>
    <g id="Page-1" stroke="none" stroke-width="1" fill="none" fill-rule="evenodd">
        <g id="seer_blog_index_desktop_hd" transform="translate(-1367.000000, -2303.000000)" fill="#FFFFFF" fill-rule="nonzero">
            <g id="Group" transform="translate(0.000000, 2225.000000)">
                <path d="M1381.8359,99.4250149 C1383.51873,99.3453184 1385.00934,98.9609352 1386.23747,97.7281348 C1387.46556,96.5000036 1387.84994,95.0093913 1387.93431,93.3265645 C1388.03277,91.5921936 1388.03277,86.3984652 1387.93431,84.6640943 C1387.85466,82.9812675 1387.47027,81.4906552 1386.23747,80.262524 C1385.00934,79.0344385 1383.51873,78.6500553 1381.8359,78.5656896 C1380.10153,78.4672249 1374.90309,78.4672249 1373.16872,78.5656896 C1371.49061,78.6453403 1369.99999,79.0297236 1368.76719,80.2578548 C1367.53439,81.485986 1367.15468,82.9765983 1367.07031,84.6594251 C1366.97189,86.393796 1366.97189,91.5921936 1367.07031,93.3265645 C1367.15001,95.0093913 1367.53439,96.5000036 1368.76719,97.7281348 C1369.99999,98.956266 1371.48594,99.3406035 1373.16872,99.4250149 C1374.90309,99.5234339 1380.10153,99.5234339 1381.8359,99.4250149 Z M1377.50464,97.6062326 C1375.97654,97.6062326 1372.69063,97.7281348 1371.31249,97.1843586 C1370.39376,96.8187437 1369.68592,96.1109512 1369.31564,95.1875067 C1368.76719,93.8046975 1368.89376,90.5234553 1368.89376,88.9953523 C1368.89376,87.4672035 1368.77186,84.1812921 1369.31564,82.8031521 C1369.68125,81.8844226 1370.38905,81.1765843 1371.31249,80.8063001 C1372.6953,80.2578548 1375.97654,80.3844262 1377.50464,80.3844262 C1379.03279,80.3844262 1382.3187,80.262524 1383.69684,80.8063001 C1384.61557,81.1719151 1385.32341,81.8797076 1385.6937,82.8031521 C1386.24214,84.1859613 1386.11557,87.4672035 1386.11557,88.9953523 C1386.11557,90.5234553 1386.24214,93.8093667 1385.6937,95.1875067 C1385.32808,96.1062362 1384.62029,96.8140745 1383.69684,97.1843586 C1382.31404,97.732804 1379.03279,97.6062326 1377.50464,97.6062326 Z M1383.11091,84.645326 C1383.80465,84.645326 1384.36715,84.0875423 1384.36715,83.3890882 C1384.36715,82.695349 1383.80465,82.1328503 1383.11091,82.1328503 C1382.41717,82.1328503 1381.85467,82.695349 1381.85467,83.3890882 C1381.85467,84.0828274 1382.41245,84.645326 1383.11091,84.645326 Z M1377.50464,94.3812495 C1380.48591,94.3812495 1382.89059,91.9765769 1382.89059,88.9953523 C1382.89059,86.0140819 1380.48591,83.6094093 1377.50464,83.6094093 C1374.52342,83.6094093 1372.11875,86.0140819 1372.11875,88.9953523 C1372.11875,91.9765769 1374.52342,94.3812495 1377.50464,94.3812495 Z M1377.50464,92.4968698 C1375.5781,92.4968698 1374.00313,90.9265611 1374.00313,88.9953523 C1374.00313,87.0640977 1375.57344,85.493789 1377.50464,85.493789 C1379.4359,85.493789 1381.00621,87.0640977 1381.00621,88.9953523 C1381.00621,90.9265611 1379.43123,92.4968698 1377.50464,92.4968698 Z" id="instagram_icon"></path>
            </g>
        </g>
    </g>
</svg>