<?xml version="1.0" encoding="UTF-8"?>
<svg width="30px" height="25px" viewBox="0 0 30 25" version="1.1" xmlns="http://www.w3.org/2000/svg" xmlns:xlink="http://www.w3.org/1999/xlink">
    <title>menu_icon</title>
    <g id="Page-1" stroke="none" stroke-width="1" fill="none" fill-rule="evenodd">
        <g id="seer_blog_post_desktop_hd" transform="translate(-1326.000000, -67.000000)" fill="#6C3563">
            <path d="M1354.5,89 C1355.32843,89 1356,89.6715729 1356,90.5 C1356,91.3284271 1355.32843,92 1354.5,92 L1327.5,92 C1326.67157,92 1326,91.3284271 1326,90.5 C1326,89.6715729 1326.67157,89 1327.5,89 L1354.5,89 Z M1354.5,78 C1355.32843,78 1356,78.6715729 1356,79.5 C1356,80.3284271 1355.32843,81 1354.5,81 L1327.5,81 C1326.67157,81 1326,80.3284271 1326,79.5 C1326,78.6715729 1326.67157,78 1327.5,78 L1354.5,78 Z M1354.5,67 C1355.32843,67 1356,67.6715729 1356,68.5 C1356,69.3284271 1355.32843,70 1354.5,70 L1327.5,70 C1326.67157,70 1326,69.3284271 1326,68.5 C1326,67.6715729 1326.67157,67 1327.5,67 L1354.5,67 Z" id="menu_icon"></path>
        </g>
    </g>
</svg>