<?xml version="1.0" encoding="UTF-8"?>
<svg width="25px" height="25px" viewBox="0 0 25 25" version="1.1" xmlns="http://www.w3.org/2000/svg" xmlns:xlink="http://www.w3.org/1999/xlink">
    <title>close_icon</title>
    <g id="Page-1" stroke="none" stroke-width="1" fill="none" fill-rule="evenodd">
        <g id="seer_blog_post_desktop_hd" transform="translate(-1331.000000, -107.000000)" fill="#FFFFFF">
            <path d="M1355.35965,107.43934 C1355.94544,108.025126 1355.94544,108.974874 1355.35965,109.56066 L1345.52,119.399 L1355.35965,129.23833 C1355.94544,129.824116 1355.94544,130.773864 1355.35965,131.35965 C1354.77386,131.945436 1353.82412,131.945436 1353.23833,131.35965 L1343.399,121.52 L1333.56066,131.35965 C1332.97487,131.945436 1332.02513,131.945436 1331.43934,131.35965 C1330.85355,130.773864 1330.85355,129.824116 1331.43934,129.23833 L1341.278,119.399 L1331.43934,109.56066 C1330.85355,108.974874 1330.85355,108.025126 1331.43934,107.43934 C1332.02513,106.853553 1332.97487,106.853553 1333.56066,107.43934 L1343.399,117.278 L1353.23833,107.43934 C1353.82412,106.853553 1354.77386,106.853553 1355.35965,107.43934 Z" id="close_icon"></path>
        </g>
    </g>
</svg>