<?xml version="1.0" encoding="UTF-8"?>
<svg width="19px" height="19px" viewBox="0 0 19 19" version="1.1" xmlns="http://www.w3.org/2000/svg" xmlns:xlink="http://www.w3.org/1999/xlink">
    <title>linkedin_icon</title>
    <g id="Page-1" stroke="none" stroke-width="1" fill="none" fill-rule="evenodd">
        <g id="seer_blog_index_desktop_hd" transform="translate(-1235.000000, -2303.000000)" fill="#FFFFFF" fill-rule="nonzero">
            <g id="Group" transform="translate(0.000000, 2225.000000)">
                <path d="M1237.40179,83.1584821 C1238.08929,83.1584821 1238.64379,82.9579613 1239.06529,82.5569196 C1239.48679,82.155878 1239.69345,81.656622 1239.68527,81.0591518 C1239.67708,80.453497 1239.46838,79.9521949 1239.05915,79.5552455 C1238.64993,79.1582961 1238.10565,78.9598214 1237.42634,78.9598214 C1236.74702,78.9598214 1236.19661,79.1582961 1235.77511,79.5552455 C1235.35361,79.9521949 1235.14286,80.453497 1235.14286,81.0591518 C1235.14286,81.656622 1235.34747,82.155878 1235.7567,82.5569196 C1236.16592,82.9579613 1236.7061,83.1584821 1237.37723,83.1584821 L1237.37723,83.1584821 L1237.40179,83.1584821 Z M1245.70089,96.9821429 L1245.70089,90.1930804 C1245.70089,89.7756696 1245.74591,89.4441964 1245.83594,89.1986607 C1246.00781,88.78125 1246.26767,88.4313616 1246.61551,88.1489955 C1246.96336,87.8666295 1247.39509,87.7254464 1247.91071,87.7254464 C1248.61458,87.7254464 1249.13225,87.968936 1249.46373,88.4559152 C1249.7952,88.9428943 1249.96094,89.6160714 1249.96094,90.4754464 L1249.96094,90.4754464 L1249.96094,96.9821429 L1254,96.9821429 L1254,90.0089286 C1254,88.2165179 1253.5744,86.8558408 1252.72321,85.9268973 C1251.87202,84.9979539 1250.74665,84.5334821 1249.3471,84.5334821 C1248.83147,84.5334821 1248.36291,84.5969122 1247.94141,84.7237723 C1247.5199,84.8506324 1247.16388,85.0286458 1246.87333,85.2578125 C1246.58278,85.4869792 1246.35156,85.6997768 1246.17969,85.8962054 C1246.00781,86.0926339 1245.84003,86.3218006 1245.67634,86.5837054 L1245.7,86.547 L1245.70089,84.8158482 L1241.66183,84.8158482 L1241.67411,85.4051339 C1241.681,85.735961 1241.68499,86.6471864 1241.68608,88.1388102 L1241.686,89.8291888 C1241.68421,91.7404029 1241.67615,94.124721 1241.66183,96.9821429 L1241.66183,96.9821429 L1245.70089,96.9821429 Z M1239.42746,96.9821429 L1239.42746,84.8158482 L1235.37612,84.8158482 L1235.37612,96.9821429 L1239.42746,96.9821429 Z" id="linkedin_icon"></path>
            </g>
        </g>
    </g>
</svg>